<svg xmlns="http://www.w3.org/2000/svg" viewBox="0 0 64 64" fill="currentColor"><path d="M32 8c-13.3 0-24 10.8-24 24 0 10.6 6.9 19.6 16.5 22.8 1.2.2 1.7-.5 1.7-1.2v-4.5c-6.7 1.5-8.1-2.8-8.1-2.8-1.1-2.8-2.7-3.5-2.7-3.5-2.2-1.5.2-1.5.2-1.5 2.4.2 3.7 2.5 3.7 2.5 2.1 3.7 5.5 2.6 6.8 2 .2-1.6.8-2.6 1.5-3.2-5.4-.6-11-2.7-11-11.8 0-2.6.9-4.7 2.5-6.4-.3-.6-1.1-3.1.2-6.4 0 0 2-.6 6.6 2.4 1.9-.5 3.9-.8 5.9-.8s4 .3 5.9.8c4.5-3 6.5-2.4 6.5-2.4 1.3 3.3.5 5.8.3 6.4 1.5 1.7 2.4 3.8 2.4 6.4 0 9.1-5.6 11.2-11 11.8.9.8 1.6 2.2 1.6 4.4v6.5c0 .7.5 1.5 1.7 1.2A24 24 0 0 0 56 32C56 18.8 45.3 8 32 8Z"/></svg>